<svg xmlns="http://www.w3.org/2000/svg" width="36" height="36" viewBox="0 0 36 36" fill="none">
    <path
            fill-rule="evenodd"
            clip-rule="evenodd"
            d="M22.0846 10.32C22.0846 12.5159 20.2803 14.34 18 14.34C15.7197 14.34 13.9154 12.5159 13.9154 10.32C13.9154 8.12412 15.7197 6.30001 18 6.30001C20.2803 6.30001 22.0846 8.12412 22.0846 10.32ZM24.7846 10.32C24.7846 14.0314 21.7471 17.04 18 17.04C14.253 17.04 11.2154 14.0314 11.2154 10.32C11.2154 6.60865 14.253 3.60001 18 3.60001C21.7471 3.60001 24.7846 6.60865 24.7846 10.32ZM15.2342 21.66H20.7659C24.6041 21.66 27.9 24.9318 27.9 29.2C27.9 29.3739 27.8345 29.5072 27.7525 29.5926C27.6724 29.676 27.594 29.7 27.5269 29.7H8.4732C8.40607 29.7 8.32766 29.676 8.24753 29.5926C8.16555 29.5072 8.10002 29.3739 8.10002 29.2C8.10002 24.9318 11.396 21.66 15.2342 21.66ZM5.40002 29.2C5.40002 23.5446 9.80292 18.96 15.2342 18.96H20.7659C26.1971 18.96 30.6 23.5446 30.6 29.2C30.6 30.9673 29.2241 32.4 27.5269 32.4H8.4732C6.77593 32.4 5.40002 30.9673 5.40002 29.2Z"
            fill="currentColor"
    />
</svg>